
<svg  xmlns="http://www.w3.org/2000/svg"   height="40" viewBox="0 96 960 960" width="40">
<path fill="red"  d="m480 882-25.128-23.025q-99.564-90.979-164.436-156.092-64.872-65.114-102.77-114.742-37.897-49.628-52.782-89.511Q120 458.747 120 419.077q0-75.059 50.949-126.068Q221.897 242 296.923 242q54.051 0 100.769 28.538Q444.41 299.077 480 353.846q37.539-55.744 83.439-83.795Q609.34 242 663.077 242q75.026 0 125.975 51.009Q840 344.018 840 419.077q0 39.67-14.884 79.553-14.885 39.883-52.724 89.401-37.839 49.518-102.641 114.742-64.803 65.223-164.623 156.202L480 882Zm0-45.589q97.468-88.64 160.416-151.862 62.948-63.222 99.856-110.245 36.908-47.022 51.395-83.359 14.487-36.337 14.487-71.772 0-61.532-40.821-102.43-40.82-40.897-102.106-40.897-49.76 0-91.173 28.808-41.413 28.807-76.721 88.679h-30.82q-35.923-59.974-77.198-88.731-41.275-28.756-90.542-28.756-60.517 0-101.722 40.897-41.205 40.898-41.205 102.714 0 35.29 14.569 71.655 14.569 36.366 51.128 83.383 36.559 47.018 99.944 109.98Q382.872 747.436 480 836.411Zm0-280.283Z"/></svg>
